<?xml version="1.0" encoding="utf-8"?>
<svg fill="#000000" height="800px" width="800px" version="1.1" xmlns="http://www.w3.org/2000/svg" xmlns:xlink="http://www.w3.org/1999/xlink" viewBox="0 0 24 24" enable-background="new 0 0 24 24" xml:space="preserve">
  <path d="M21.3,22.7l-3-3C16.6,21.2,14.4,22,12,22s-4.6-0.8-6.3-2.3l-3,3l-1.4-1.4l3-3C2.9,16.6,2,14.4,2,12c0-0.7,0.1-1.4,0.2-2.1
    C0.8,8.9,0,7.2,0,5.5C0,2.5,2.5,0,5.5,0c1.8,0,3.4,0.8,4.4,2.2c1.3-0.3,2.8-0.3,4.2,0c1-1.4,2.7-2.2,4.4-2.2c3,0,5.5,2.5,5.5,5.5
    c0,1.8-0.8,3.4-2.2,4.4c0.1,0.8,0.2,1.4,0.2,2.2c0,2.4-0.8,4.6-2.3,6.3l3,3L21.3,22.7z M12,4c-4.4,0-8,3.6-8,8s3.6,8,8,8
    s8-3.6,8-8S16.4,4,12,4z M16.2,2.9c2.2,1,3.9,2.8,4.9,4.9C21.7,7.3,22,6.4,22,5.5C22,3.6,20.4,2,18.5,2C17.6,2,16.8,2.3,16.2,2.9z
     M5.5,2C3.6,2,2,3.6,2,5.5c0,0.9,0.3,1.7,0.9,2.3c1-2.2,2.8-3.9,4.9-4.9C7.2,2.3,6.4,2,5.5,2z M14.3,15.7L11,12.5V7.1h2v4.6
    l2.7,2.7L14.3,15.7z"/>
</svg>
