<?xml version="1.0" encoding="utf-8"?>
<svg version="1.0" id="Layer_1" xmlns="http://www.w3.org/2000/svg" xmlns:xlink="http://www.w3.org/1999/xlink" width="800px" height="800px" viewBox="0 0 64 64" enable-background="new 0 0 64 64" xml:space="preserve">
<g>
	<path fill="#FFFFFF" d="M58,60V4c0-1.104-0.896-2-2-2H8C6.896,2,6,2.896,6,4v56c0,1.104,0.896,2,2,2h48C57.104,62,58,61.104,58,60z"/>
	<g>
		<path fill="#394240" d="M56,0H8C5.789,0,4,1.789,4,4v56c0,2.211,1.789,4,4,4h48c2.211,0,4-1.789,4-4V4C60,1.789,58.211,0,56,0z M58,60c0,1.104-0.896,2-2,2H8c-1.104,0-2-0.896-2-2V4c0-1.104,0.896-2,2-2h48c1.104,0,2,0.896,2,2V60z"/>
		<path fill="#394240" d="M49,25H15c-0.553,0-1,0.447-1,1s0.447,1,1,1h34c0.553,0,1-0.447,1-1S49.553,25,49,25z"/>
		<path fill="#394240" d="M49,19H15c-0.553,0-1,0.447-1,1s0.447,1,1,1h34c0.553,0,1-0.447,1-1S49.553,19,49,19z"/>
		<path fill="#394240" d="M49,37H15c-0.553,0-1,0.447-1,1s0.447,1,1,1h34c0.553,0,1-0.447,1-1S49.553,37,49,37z"/>
		<path fill="#394240" d="M49,43H15c-0.553,0-1,0.447-1,1s0.447,1,1,1h34c0.553,0,1-0.447,1-1S49.553,43,49,43z"/>
		<path fill="#394240" d="M49,49H15c-0.553,0-1,0.447-1,1s0.447,1,1,1h34c0.553,0,1-0.447,1-1S49.553,49,49,49z"/>
		<path fill="#394240" d="M49,31H15c-0.553,0-1,0.447-1,1s0.447,1,1,1h34c0.553,0,1-0.447,1-1S49.553,31,49,31z"/>
		<path fill="#394240" d="M15,15h16c0.553,0,1-0.447,1-1s-0.447-1-1-1H15c-0.553,0-1,0.447-1,1S14.447,15,15,15z"/>
	</g>
</g>
</svg>
