<?xml version="1.0" encoding="utf-8"?>
<svg width="800px" height="800px" viewBox="0 0 24 24" fill="none" xmlns="http://www.w3.org/2000/svg">
<path fill-rule="evenodd" clip-rule="evenodd" d="M6 1C4.34315 1 3 2.34315 3 4V17V20C3 21.6569 4.34315 23 6 23H18C19.6569 23 21 21.6569 21 20V17V4C21 2.34315 19.6569 1 18 1H6ZM5 20V17C5 16.4477 5.44772 16 6 16H18C18.5523 16 19 16.4477 19 17V20C19 20.5523 18.5523 21 18 21H6C5.44772 21 5 20.5523 5 20ZM18 14C18.3506 14 18.6872 14.0602 19 14.1707V4C19 3.44772 18.5523 3 18 3H6C5.44772 3 5 3.44772 5 4V14.1707C5.31278 14.0602 5.64936 14 6 14H18ZM14.5 19.25C15.1904 19.25 15.75 18.6904 15.75 18C15.75 17.3096 15.1904 16.75 14.5 16.75C13.8096 16.75 13.25 17.3096 13.25 18C13.25 18.6904 13.8096 19.25 14.5 19.25Z" fill="#000000"/>
</svg>