<?xml version="1.0" encoding="utf-8"?>
<svg width="800px" height="800px" viewBox="0 0 24 24" fill="none" xmlns="http://www.w3.org/2000/svg">
<path d="M13 3H8.2C7.0799 3 6.51984 3 6.09202 3.21799C5.71569 3.40973 5.40973 3.71569 5.21799 4.09202C5 4.51984 5 5.0799 5 6.2V17.8C5 18.9201 5 19.4802 5.21799 19.908C5.40973 20.2843 5.71569 20.5903 6.09202 20.782C6.51984 21 7.0799 21 8.2 21H10M13 3L19 9M13 3V7.4C13 7.96005 13 8.24008 13.109 8.45399C13.2049 8.64215 13.3578 8.79513 13.546 8.89101C13.7599 9 14.0399 9 14.6 9H19M19 9V10M14 21L16.025 20.595C16.2015 20.5597 16.2898 20.542 16.3721 20.5097C16.4452 20.4811 16.5147 20.4439 16.579 20.399C16.6516 20.3484 16.7152 20.2848 16.8426 20.1574L21 16C21.5523 15.4477 21.5523 14.5523 21 14C20.4477 13.4477 19.5523 13.4477 19 14L14.8426 18.1574C14.7152 18.2848 14.6516 18.3484 14.601 18.421C14.5561 18.4853 14.5189 18.5548 14.4903 18.6279C14.458 18.7102 14.4403 18.7985 14.405 18.975L14 21Z" stroke="#000000" stroke-width="2" stroke-linecap="round" stroke-linejoin="round"/>
</svg>