<?xml version="1.0" encoding="utf-8"?>
<svg fill="#000000" height="800px" width="800px" version="1.1" xmlns="http://www.w3.org/2000/svg" xmlns:xlink="http://www.w3.org/1999/xlink" viewBox="0 0 24 24" xml:space="preserve">
  <g>
    <path d="M1.7,23.7l-1.4-1.4l2.4-2.4c-2.4-2.8-2.2-7,0.4-9.6l1.7-1.7l10.7,10.7l-1.6,1.6c-1.4,1.4-3.2,2.1-5.1,2.1
      c-1.7,0-3.3-0.6-4.6-1.7L1.7,23.7z M5,19.4c1,1,2.3,1.5,3.7,1.5s2.7-0.5,3.7-1.5l0.2-0.2l-7.8-7.9l-0.3,0.3c-2,2-2,5.2,0,7.2
      L5,19.4z M19.2,15.3l-2.5-2.5l-2.3,2.3L13,13.8l2.3-2.3l-2.8-2.8L10.2,11L8.8,9.6l2.3-2.3L8.6,4.8l1.6-1.6
      c1.4-1.4,3.2-2.1,5.1-2.1c1.7,0,3.3,0.6,4.6,1.7l2.4-2.4l1.4,1.4l-2.4,2.4c2.4,2.8,2.2,7-0.4,9.6L19.2,15.3z M11.4,4.6l7.8,7.9
      l0.3-0.3c2-2,2-5.2,0-7.2L19,4.4c-1-1-2.3-1.5-3.7-1.5s-2.7,0.5-3.7,1.5L11.4,4.6z"/>
  </g>
</svg>
