<?xml version="1.0" encoding="utf-8"?>
<svg fill="#000000" height="800px" width="800px" version="1.1" xmlns="http://www.w3.org/2000/svg" xmlns:xlink="http://www.w3.org/1999/xlink" viewBox="0 0 24 24" xml:space="preserve">
	<path d="M14.8,24l-3.3-4.3l-3.2,4.2L5.8,6.9l16,7.2L16.4,16l3.2,4.3L14.8,24z M11.6,16.4l3.6,4.8l1.6-1.3L13.1,15l3.3-1.1l-8.1-3.6l1.3,8.7L11.6,16.4z"/>
	<path d="M4,18H0v-4h2v2h2V18z M2,12H0V6h2V12z M18,10h-2V6h2V10z M18,4h-2V2h-2V0h4V4z M2,4H0V0h4v2H2V4z M12,2H6V0h6V2z"/>
</svg>
