<?xml version="1.0" encoding="utf-8"?>
<svg fill="#000000" height="800px" width="800px" version="1.1" id="XMLID_140_" xmlns="http://www.w3.org/2000/svg" xmlns:xlink="http://www.w3.org/1999/xlink" viewBox="0 0 24 24" xml:space="preserve">
  <path d="M13,24h-2v-2c-4.7-0.5-8.5-4.2-9-9H0v-2h2c0.5-4.7,4.2-8.5,9-9V0h2v2c4.7,0.5,8.5,4.2,9,9h2v2h-2c-0.5,4.7-4.2,8.5-9,9V24
    z M13,17.9v2c3.6-0.5,6.5-3.3,6.9-6.9h-2C17.5,15.5,15.5,17.5,13,17.9z M4.1,13c0.5,3.6,3.3,6.5,6.9,6.9v-2
    c-2.5-0.4-4.5-2.4-4.9-4.9H4.1z M13,13v2.9c1.4-0.4,2.5-1.5,2.9-2.9H13z M8.1,13c0.4,1.4,1.5,2.5,2.9,2.9V13H8.1z M17.9,11h2
    c-0.4-3.6-3.3-6.5-6.9-6.9v2C15.5,6.5,17.5,8.5,17.9,11z M13,11h2.9c-0.4-1.4-1.5-2.5-2.9-2.9V11z M8.1,11H11V8.1
    C9.6,8.5,8.5,9.6,8.1,11z M4.1,11h2C6.5,8.5,8.5,6.5,11,6.1v-2C7.4,4.5,4.5,7.4,4.1,11z"/>
</svg>
