<?xml version="1.0" encoding="utf-8"?>
<svg fill="#000000" height="800px" width="800px" version="1.1" id="XMLID_66_" xmlns="http://www.w3.org/2000/svg" xmlns:xlink="http://www.w3.org/1999/xlink" viewBox="0 0 24 24" xml:space="preserve">
  <polygon points="24,17 20,17 20,15 22,15 22,3 4,3 4,5 2,5 2,1 24,1 		"/>
  <rect x="10" width="6" height="4"/>
  <path d="M13,24H0v-5c0-2.3,1.3-4.4,3.3-5.4C2.5,12.8,2,11.7,2,10.5C2,8,4,6,6.5,6S11,8,11,10.5c0,0.7-0.1,1.3-0.4,1.8
    c1.4-0.6,3.4-1.8,5.7-4.1l2-2l1.4,1.4L18.4,9l1.8,1.8l-0.3,0.6c-0.1,0.2-2.4,5.5-6.6,7.2C13.1,18.7,13,18.8,13,19V24z M2,22h9v-3
    c0-1,0.6-1.9,1.5-2.3c2.7-1.1,4.6-4.2,5.3-5.5L17,10.4C12.1,15,8.4,15,8,15H6c-2.2,0-4,1.8-4,4V22z M6.5,13C7.9,13,9,11.9,9,10.5
    S7.9,8,6.5,8S4,9.1,4,10.5S5.1,13,6.5,13z"/>
</svg>
