<?xml version="1.0" encoding="utf-8"?>
<svg width="800px" height="800px" viewBox="0 0 24 24" fill="none" xmlns="http://www.w3.org/2000/svg">
  <path d="M7.55078 20.4C8.8036 21.4334 10.3767 21.999 12.0007 22" stroke="#000000" stroke-width="1.5" stroke-linecap="round" stroke-linejoin="round"/>
  <path d="M18.2201 5.78002C17.4999 4.38506 16.3317 3.27266 14.9032 2.62157C13.4747 1.97048 11.8688 1.81847 10.3435 2.18999C8.81817 2.56151 7.46204 3.43496 6.49294 4.67003C5.52385 5.90511 4.99804 7.4301 5.00002 8.99999V15C4.99707 16.1173 5.26473 17.2187 5.78005 18.21" stroke="#000000" stroke-width="1.5" stroke-linecap="round" stroke-linejoin="round"/>
  <path d="M11 13V8" stroke="#000000" stroke-width="1.5" stroke-linecap="round" stroke-linejoin="round"/>
  <path d="M18.999 9.25V14.67C18.9975 15.5492 18.7063 16.4035 18.1705 17.1006C17.6347 17.7977 16.8841 18.2988 16.0349 18.5265C15.1856 18.7542 14.285 18.6957 13.4724 18.3601C12.6597 18.0245 11.9802 17.4305 11.5391 16.67" stroke="#000000" stroke-width="1.5" stroke-linecap="round" stroke-linejoin="round"/>
  <path d="M22 2L2 22" stroke="#000000" stroke-width="1.5" stroke-linecap="round" stroke-linejoin="round"/>
</svg>
